<svg width="137" height="136" fill="none" xmlns="http://www.w3.org/2000/svg"><ellipse cx="68.5" cy="68" rx="68.5" ry="68" fill="#FCCD13"/><path d="M40.818 49.495V26.652h4.843v18.843h9.266v4h-14.11Zm24.874-17.828c2.344 0 4.141.51 5.391 1.532 1.25 1.02 1.875 2.573 1.875 4.656v11.64H69.63l-.922-2.374h-.125c-.5.624-1.01 1.135-1.531 1.53-.52.397-1.12.688-1.797.876-.677.187-1.5.281-2.469.281-1.031 0-1.958-.198-2.781-.594a4.417 4.417 0 0 1-1.922-1.812c-.469-.823-.703-1.865-.703-3.125 0-1.854.651-3.219 1.953-4.094 1.302-.885 3.255-1.375 5.86-1.469l3.03-.093v-.766c0-.917-.239-1.589-.718-2.016-.48-.427-1.146-.64-2-.64-.844 0-1.672.12-2.484.359a19.26 19.26 0 0 0-2.438.906l-1.578-3.218c.927-.49 1.964-.876 3.11-1.157a15.083 15.083 0 0 1 3.577-.422Zm2.532 9.735-1.844.062c-1.542.042-2.615.318-3.219.828-.593.51-.89 1.183-.89 2.016 0 .73.213 1.25.64 1.563.427.302.985.453 1.672.453 1.021 0 1.88-.302 2.578-.907.709-.604 1.063-1.463 1.063-2.578v-1.437Zm19.578-9.703c1.864 0 3.364.51 4.5 1.53 1.135 1.011 1.703 2.636 1.703 4.876v11.39h-4.766V39.293c0-1.25-.229-2.192-.687-2.828-.448-.635-1.156-.953-2.125-.953-1.458 0-2.453.495-2.985 1.484-.53.99-.796 2.417-.796 4.282v8.218H77.88V32.028h3.64l.641 2.234h.266a4.818 4.818 0 0 1 1.39-1.469 6.113 6.113 0 0 1 1.86-.828 8.484 8.484 0 0 1 2.125-.265Zm-33.5 43.453c0 1.354-.328 2.531-.984 3.531-.657 1-1.615 1.77-2.875 2.313-1.25.541-2.771.812-4.563.812-.792 0-1.568-.052-2.328-.156a16.031 16.031 0 0 1-2.172-.453 13.531 13.531 0 0 1-1.969-.766v-4.5c1.084.48 2.209.911 3.375 1.297 1.167.385 2.323.578 3.469.578.792 0 1.427-.104 1.906-.313.49-.208.844-.494 1.063-.859.219-.364.328-.781.328-1.25 0-.573-.193-1.062-.578-1.469-.386-.406-.917-.786-1.594-1.14a64.511 64.511 0 0 0-2.266-1.14c-.53-.25-1.109-.553-1.734-.907a10.15 10.15 0 0 1-1.781-1.328 6.404 6.404 0 0 1-1.39-1.89c-.355-.75-.532-1.647-.532-2.688 0-1.365.312-2.532.937-3.5.625-.97 1.516-1.709 2.672-2.22 1.167-.52 2.542-.78 4.125-.78 1.188 0 2.318.14 3.39.422 1.084.27 2.214.666 3.392 1.187l-1.563 3.766a25.897 25.897 0 0 0-2.828-.985 9.172 9.172 0 0 0-2.547-.36c-.604 0-1.12.1-1.547.298-.427.187-.75.458-.969.812a2.193 2.193 0 0 0-.328 1.203c0 .542.157 1 .469 1.375.323.365.802.72 1.438 1.063.645.344 1.447.745 2.406 1.203 1.166.552 2.161 1.13 2.984 1.734.834.594 1.474 1.297 1.922 2.11.448.802.672 1.802.672 3Zm7.922 6.344-6.656-17.47h4.984l3.375 9.954c.187.583.333 1.198.437 1.844.115.645.193 1.224.235 1.734h.125c.031-.552.104-1.14.218-1.766.126-.625.287-1.229.485-1.812l3.36-9.953h4.984l-6.657 17.469h-4.89Zm21.265-17.797c1.615 0 3.006.312 4.172.937a6.407 6.407 0 0 1 2.703 2.688c.636 1.177.953 2.614.953 4.312v2.313H80.052c.052 1.343.453 2.4 1.203 3.172.76.76 1.813 1.14 3.156 1.14 1.115 0 2.136-.114 3.063-.344.927-.229 1.88-.573 2.86-1.03v3.687c-.865.427-1.772.74-2.72.937-.937.198-2.078.297-3.422.297-1.75 0-3.302-.323-4.656-.969-1.344-.646-2.4-1.63-3.172-2.953-.76-1.323-1.14-2.99-1.14-5 0-2.041.343-3.74 1.031-5.094.698-1.364 1.667-2.385 2.906-3.062 1.24-.688 2.683-1.031 4.328-1.031Zm.032 3.39c-.927 0-1.698.297-2.313.89-.604.595-.953 1.527-1.047 2.798h6.688c-.01-.709-.14-1.339-.39-1.89a2.937 2.937 0 0 0-1.095-1.313c-.479-.323-1.093-.485-1.843-.485ZM49.63 113.496h-4.844V94.683h-6.203v-4.031h17.25v4.031H49.63v18.813Zm6.844-17.47h5.219l3.296 9.829c.105.312.193.63.266.953.073.323.135.656.188 1 .052.344.093.703.124 1.078h.094c.063-.562.146-1.088.25-1.578.115-.49.255-.974.422-1.453l3.234-9.828h5.11l-7.39 19.703c-.449 1.208-1.032 2.213-1.75 3.016a7.041 7.041 0 0 1-2.485 1.828c-.927.406-1.948.609-3.063.609-.541 0-1.01-.031-1.406-.094a11.728 11.728 0 0 1-1.015-.172v-3.781a8.573 8.573 0 0 0 1.875.203c.666 0 1.24-.14 1.718-.422.48-.281.88-.661 1.203-1.14.323-.469.579-.985.766-1.547l.281-.859-6.937-17.344Zm25.484-6.843v10.875c0 .656-.026 1.313-.078 1.969-.052.656-.11 1.312-.172 1.969h.063c.323-.459.65-.912.984-1.36.344-.448.708-.88 1.094-1.297l4.89-5.312h5.375l-6.937 7.578 7.36 9.891h-5.5l-5.032-7.079-2.047 1.641v5.438h-4.766V89.183h4.766Z" fill="#000"/><path d="M42.79 47.563V24.719h4.843v18.844H56.9v4h-14.11Zm24.874-17.828c2.344 0 4.141.51 5.391 1.53 1.25 1.022 1.875 2.574 1.875 4.657v11.64h-3.328l-.922-2.374h-.125c-.5.625-1.01 1.135-1.531 1.531-.521.396-1.12.688-1.797.875-.677.188-1.5.281-2.469.281-1.031 0-1.958-.198-2.781-.593a4.417 4.417 0 0 1-1.922-1.813c-.469-.823-.703-1.865-.703-3.125 0-1.854.65-3.219 1.953-4.094 1.302-.885 3.255-1.375 5.86-1.468l3.03-.094v-.766c0-.917-.239-1.588-.718-2.015-.48-.428-1.146-.641-2-.641-.844 0-1.672.12-2.484.36a19.26 19.26 0 0 0-2.438.906l-1.578-3.22c.927-.489 1.963-.874 3.11-1.155a15.082 15.082 0 0 1 3.577-.422Zm2.532 9.734-1.844.063c-1.542.041-2.615.317-3.219.828-.594.51-.89 1.182-.89 2.015 0 .73.213 1.25.64 1.563.427.302.985.453 1.672.453 1.02 0 1.88-.302 2.578-.906.709-.605 1.063-1.464 1.063-2.578v-1.438Zm19.578-9.703c1.864 0 3.364.51 4.5 1.531 1.135 1.01 1.703 2.635 1.703 4.875v11.39H91.21V37.36c0-1.25-.229-2.193-.687-2.828-.448-.636-1.156-.954-2.125-.954-1.459 0-2.453.495-2.985 1.485-.53.99-.796 2.416-.796 4.281v8.219h-4.766V30.094h3.64l.641 2.234h.266a4.818 4.818 0 0 1 1.39-1.468 6.113 6.113 0 0 1 1.86-.828 8.484 8.484 0 0 1 2.125-.266Zm-33.5 43.453c0 1.354-.328 2.531-.985 3.531-.656 1-1.614 1.771-2.875 2.313-1.25.541-2.77.812-4.562.812-.792 0-1.568-.052-2.328-.156a16.031 16.031 0 0 1-2.172-.453 13.533 13.533 0 0 1-1.969-.766V74c1.084.48 2.209.912 3.375 1.297a11.01 11.01 0 0 0 3.469.578c.792 0 1.427-.104 1.906-.312.49-.209.844-.495 1.063-.86.218-.364.328-.78.328-1.25 0-.573-.193-1.062-.578-1.468-.386-.407-.917-.787-1.594-1.141a64.687 64.687 0 0 0-2.266-1.14c-.531-.25-1.11-.553-1.734-.907a10.15 10.15 0 0 1-1.781-1.328 6.405 6.405 0 0 1-1.391-1.89c-.354-.75-.531-1.646-.531-2.688 0-1.365.312-2.531.937-3.5.625-.969 1.516-1.709 2.672-2.219 1.167-.52 2.542-.781 4.125-.781 1.188 0 2.318.14 3.39.422 1.084.27 2.214.666 3.391 1.187l-1.562 3.766a25.897 25.897 0 0 0-2.828-.984 9.173 9.173 0 0 0-2.547-.36c-.604 0-1.12.099-1.547.297-.427.188-.75.458-.969.813a2.192 2.192 0 0 0-.328 1.203c0 .541.156 1 .469 1.375.323.364.802.718 1.437 1.062.646.344 1.448.745 2.407 1.203 1.166.552 2.161 1.13 2.984 1.735.833.593 1.474 1.296 1.922 2.109.448.802.672 1.802.672 3Zm7.922 6.344-6.657-17.469h4.985l3.375 9.953c.187.583.333 1.198.437 1.844.115.646.193 1.224.235 1.734h.125c.03-.552.104-1.14.218-1.765.125-.625.287-1.23.485-1.813l3.36-9.953h4.984l-6.657 17.469h-4.89ZM85.46 61.766c1.615 0 3.005.312 4.172.937a6.408 6.408 0 0 1 2.703 2.688c.636 1.177.953 2.614.953 4.312v2.313H82.024c.052 1.344.453 2.4 1.203 3.172.76.76 1.812 1.14 3.156 1.14 1.115 0 2.136-.114 3.063-.343.927-.23 1.88-.573 2.859-1.032v3.688c-.865.427-1.77.74-2.719.937-.937.198-2.078.297-3.422.297-1.75 0-3.302-.323-4.656-.969-1.344-.645-2.4-1.63-3.172-2.953-.76-1.323-1.14-2.99-1.14-5 0-2.041.343-3.74 1.03-5.093.699-1.365 1.668-2.386 2.907-3.063 1.24-.687 2.682-1.031 4.328-1.031Zm.032 3.39c-.928 0-1.698.297-2.313.891-.604.594-.953 1.526-1.047 2.797h6.688c-.01-.708-.141-1.339-.391-1.89a2.937 2.937 0 0 0-1.094-1.313c-.479-.323-1.093-.485-1.843-.485Zm-33.891 46.407h-4.844V92.75h-6.203V88.72h17.25v4.031h-6.203v18.813Zm6.844-17.469h5.218l3.297 9.828c.104.313.193.63.266.953.073.323.135.656.187 1 .052.344.094.703.125 1.078h.094c.063-.562.146-1.088.25-1.578.115-.489.255-.974.422-1.453l3.234-9.828h5.11l-7.39 19.703c-.449 1.208-1.032 2.214-1.75 3.016a7.028 7.028 0 0 1-2.485 1.828c-.927.406-1.948.609-3.063.609-.541 0-1.01-.031-1.406-.094a12.164 12.164 0 0 1-1.016-.171v-3.782c.22.052.495.099.828.141a8.38 8.38 0 0 0 1.047.062c.667 0 1.24-.14 1.72-.421.478-.282.88-.662 1.202-1.141a6.12 6.12 0 0 0 .766-1.547l.281-.859-6.937-17.344ZM83.93 87.25v10.875c0 .656-.026 1.313-.078 1.969-.052.656-.11 1.312-.172 1.969h.063c.322-.459.65-.912.984-1.36.344-.448.708-.88 1.094-1.297l4.89-5.312h5.375l-6.937 7.578 7.36 9.891h-5.5l-5.032-7.078-2.047 1.64v5.438h-4.766V87.25h4.766Z" fill="#FCCD13"/></svg>