<?xml version="1.0" encoding="utf-8"?><svg viewBox="0 0 30 48" xmlns="http://www.w3.org/2000/svg" xmlns:xlink="http://www.w3.org/1999/xlink"><style>:root>svg{display:none}:root>svg:target{display:block}</style><svg fill="none" viewBox="0 0 13 11" id="chekbox" xmlns="http://www.w3.org/2000/svg"><path d="M1 4.826 5.206 9 12 1" stroke="#ecb406" stroke-width="2" stroke-linecap="round"/></svg><svg viewBox="0 0 18 18" id="phone" xmlns="http://www.w3.org/2000/svg"><path d="M16.343 12.098a10.49 10.49 0 0 1-3.236-.513.896.896 0 0 0-.926.22l-1.44 1.806c-2.593-1.238-5.023-3.575-6.315-6.261l1.787-1.522a.935.935 0 0 0 .22-.935 10.223 10.223 0 0 1-.513-3.236.916.916 0 0 0-.907-.907H1.84C1.346.75.75.97.75 1.657c0 8.516 7.086 15.593 15.593 15.593.65 0 .907-.578.907-1.082v-3.162a.916.916 0 0 0-.907-.908Z"/></svg><svg fill="none" viewBox="0 0 30 48" id="rightTr" xmlns="http://www.w3.org/2000/svg"><path d="M0 47.5V0l30 24.5-30 23Z" fill="#ECB406"/></svg></svg>